<mxfile host="app.diagrams.net" modified="2024-01-03T05:02:53.119Z" agent="Mozilla/5.0 (Windows NT 10.0; Win64; x64) AppleWebKit/537.36 (KHTML, like Gecko) Chrome/120.0.0.0 Safari/537.36 Edg/120.0.0.0" etag="FyAUU2Q2G9YSswzNKu6B" version="22.1.16" type="github">
  <diagram name="第 1 页" id="Og9kDQ-HKqt_a4ZrkuFH">
    <mxGraphModel dx="956" dy="523" grid="0" gridSize="10" guides="1" tooltips="1" connect="1" arrows="1" fold="1" page="1" pageScale="1" pageWidth="827" pageHeight="1169" math="0" shadow="0">
      <root>
        <mxCell id="0" />
        <mxCell id="1" parent="0" />
        <mxCell id="S3UF_QulotgcL5Qos_jf-9" style="edgeStyle=orthogonalEdgeStyle;rounded=0;orthogonalLoop=1;jettySize=auto;html=1;entryX=0.5;entryY=0;entryDx=0;entryDy=0;" edge="1" parent="1" source="S3UF_QulotgcL5Qos_jf-2" target="S3UF_QulotgcL5Qos_jf-6">
          <mxGeometry relative="1" as="geometry" />
        </mxCell>
        <mxCell id="S3UF_QulotgcL5Qos_jf-13" style="edgeStyle=orthogonalEdgeStyle;rounded=0;orthogonalLoop=1;jettySize=auto;html=1;exitX=0.5;exitY=1;exitDx=0;exitDy=0;entryX=0.5;entryY=0;entryDx=0;entryDy=0;" edge="1" parent="1" source="S3UF_QulotgcL5Qos_jf-2" target="S3UF_QulotgcL5Qos_jf-8">
          <mxGeometry relative="1" as="geometry" />
        </mxCell>
        <mxCell id="S3UF_QulotgcL5Qos_jf-14" style="edgeStyle=orthogonalEdgeStyle;rounded=0;orthogonalLoop=1;jettySize=auto;html=1;exitX=0.5;exitY=1;exitDx=0;exitDy=0;" edge="1" parent="1" source="S3UF_QulotgcL5Qos_jf-2" target="S3UF_QulotgcL5Qos_jf-5">
          <mxGeometry relative="1" as="geometry" />
        </mxCell>
        <mxCell id="S3UF_QulotgcL5Qos_jf-15" style="edgeStyle=orthogonalEdgeStyle;rounded=0;orthogonalLoop=1;jettySize=auto;html=1;exitX=0.5;exitY=1;exitDx=0;exitDy=0;entryX=0.5;entryY=0;entryDx=0;entryDy=0;" edge="1" parent="1" source="S3UF_QulotgcL5Qos_jf-2" target="S3UF_QulotgcL5Qos_jf-7">
          <mxGeometry relative="1" as="geometry" />
        </mxCell>
        <mxCell id="S3UF_QulotgcL5Qos_jf-16" style="edgeStyle=orthogonalEdgeStyle;rounded=0;orthogonalLoop=1;jettySize=auto;html=1;exitX=0.5;exitY=1;exitDx=0;exitDy=0;" edge="1" parent="1" source="S3UF_QulotgcL5Qos_jf-2" target="S3UF_QulotgcL5Qos_jf-4">
          <mxGeometry relative="1" as="geometry" />
        </mxCell>
        <mxCell id="S3UF_QulotgcL5Qos_jf-2" value="二叉树绘制工具" style="rounded=1;whiteSpace=wrap;html=1;" vertex="1" parent="1">
          <mxGeometry x="374" y="231" width="120" height="62" as="geometry" />
        </mxCell>
        <mxCell id="S3UF_QulotgcL5Qos_jf-4" value="二叉树绘制" style="rounded=0;whiteSpace=wrap;html=1;" vertex="1" parent="1">
          <mxGeometry x="93" y="353" width="112" height="69" as="geometry" />
        </mxCell>
        <mxCell id="S3UF_QulotgcL5Qos_jf-5" value="二叉树遍历" style="rounded=0;whiteSpace=wrap;html=1;" vertex="1" parent="1">
          <mxGeometry x="232" y="353" width="112" height="69" as="geometry" />
        </mxCell>
        <mxCell id="S3UF_QulotgcL5Qos_jf-6" value="二叉树截图" style="rounded=0;whiteSpace=wrap;html=1;" vertex="1" parent="1">
          <mxGeometry x="378" y="353" width="112" height="69" as="geometry" />
        </mxCell>
        <mxCell id="S3UF_QulotgcL5Qos_jf-7" value="二叉树导出" style="rounded=0;whiteSpace=wrap;html=1;" vertex="1" parent="1">
          <mxGeometry x="518" y="353" width="112" height="69" as="geometry" />
        </mxCell>
        <mxCell id="S3UF_QulotgcL5Qos_jf-8" value="二叉树规格化" style="rounded=0;whiteSpace=wrap;html=1;" vertex="1" parent="1">
          <mxGeometry x="658" y="353" width="112" height="69" as="geometry" />
        </mxCell>
      </root>
    </mxGraphModel>
  </diagram>
</mxfile>
